<svg width="158" height="28" viewBox="0 0 158 28" fill="none" xmlns="http://www.w3.org/2000/svg">
<path d="M0 0.847298H5.44725V7.40148L11.0979 0.847298H17.2977L10.7216 8.4707L17.762 19.4422H11.9673L7.36067 11.9337L5.44885 14.0706V19.4422H0.00160031V0.845703L0 0.847298Z" fill="white"/>
<path d="M21.1933 17.7825C19.5809 16.4835 18.7739 14.6499 18.7739 12.2816V0.845703H24.2212V11.7039C24.2212 13.9764 25.3516 15.1127 27.6109 15.1127C29.851 15.1127 30.9718 13.9764 30.9718 11.7039V0.845703H36.419V12.2816C36.419 13.8599 36.0524 15.2068 35.3174 16.3239C34.5825 17.4394 33.5497 18.2868 32.2159 18.8645C30.8821 19.4422 29.3466 19.7311 27.6093 19.7311C24.9433 19.7311 22.8057 19.0815 21.1933 17.7825Z" fill="white"/>
<path d="M38.8833 0.847168H44.3306V15.2865H52.732V19.4437H38.8833V0.847168Z" fill="white"/>
<path d="M54.7896 4.88947H49.5457V0.847168H65.4807V4.88947H60.2368V19.4437H54.7912L54.7896 4.88947Z" fill="white"/>
<path d="M69.7832 17.7825C68.1708 16.4835 67.3638 14.6499 67.3638 12.2816V0.845703H72.811V11.7039C72.811 13.9764 73.9399 15.1127 76.2007 15.1127C78.4392 15.1127 79.5616 13.9764 79.5616 11.7039V0.845703H85.0089V12.2816C85.0089 13.8599 84.6422 15.2068 83.9073 16.3239C83.1723 17.4394 82.1396 18.2868 80.8058 18.8645C79.472 19.4422 77.9364 19.7311 76.1991 19.7311C73.5332 19.7311 71.394 19.0815 69.78 17.7825H69.7832Z" fill="white"/>
<path d="M87.1816 0.847168H96.8881C99.0897 0.847168 100.75 1.44402 101.871 2.63772C102.99 3.83142 103.552 5.43845 103.552 7.4588C103.552 8.6908 103.243 9.78396 102.625 10.7367C102.005 11.691 101.166 12.4267 100.103 12.9469C100.316 13.1193 100.499 13.322 100.656 13.5534C100.809 13.7848 100.982 14.1199 101.176 14.5635L103.32 19.4437H97.6406L95.6711 14.9689C95.5158 14.6226 95.3285 14.3768 95.1059 14.2316C94.8834 14.088 94.5695 14.0146 94.1644 14.0146H92.6289V19.4437H87.1816V0.847168ZM95.4982 9.85578C96.2908 9.85578 96.9041 9.64832 97.338 9.23499C97.7719 8.82007 97.9897 8.228 97.9897 7.4588C97.9897 5.82305 97.2179 5.00437 95.6711 5.00437H92.6305V9.85578H95.4982Z" fill="white"/>
<path d="M105.583 0.847168H110.218L117.258 10.6936V0.847168H122.706V19.4437H118.04L111.028 9.62597V19.4437H105.583V0.847168Z" fill="white"/>
<path d="M131.165 0.847168H136.932L144.09 19.4437H138.41L136.844 15.4876H131.222L129.687 19.4437H124.007L131.165 0.847168ZM136.12 11.5889L134.034 6.13105L131.948 11.5889H136.12Z" fill="white"/>
<path d="M146.725 4.88947H141.481V0.847168H157.418V4.88947H152.174V19.4437H146.727V4.88947H146.725Z" fill="white"/>
<path d="M0.0303955 21.7783H1.00552V24.2758H3.78038V21.7783H4.75551V27.525H3.78038V25.0275H1.00552V27.525H0.0303955V21.7783Z" fill="white"/>
<path d="M5.8844 21.7783H9.90339V22.5379H6.85953V24.2774H9.57194V25.0275H6.85953V26.7765H9.90339V27.5266H5.8844V21.7783Z" fill="white"/>
<path d="M10.808 21.7783H11.7831V26.7749H14.7373V27.525H10.8064L10.808 21.7783Z" fill="white"/>
<path d="M15.2305 27.3287V26.4717C15.7861 26.6872 16.3545 26.7941 16.9405 26.7941C17.4241 26.7941 17.7748 26.7367 17.9925 26.6249C18.2103 26.5116 18.3192 26.301 18.3192 25.9914C18.3192 25.7951 18.2727 25.6387 18.1799 25.5238C18.087 25.4073 17.9365 25.3068 17.7283 25.2238C17.5202 25.1408 17.2063 25.0466 16.7884 24.9381C16.1672 24.7769 15.7317 24.5727 15.4819 24.3269C15.2321 24.0796 15.1056 23.7396 15.1056 23.304C15.1056 22.7933 15.2945 22.3959 15.6708 22.1135C16.0471 21.831 16.5963 21.689 17.3168 21.689C17.6339 21.689 17.9397 21.7113 18.2343 21.756C18.5289 21.8007 18.7691 21.8549 18.9549 21.922V22.7773C18.5001 22.6066 17.9989 22.5188 17.4513 22.5188C16.9982 22.5188 16.6571 22.5795 16.4314 22.6975C16.2056 22.8156 16.0919 23.0183 16.0919 23.304C16.0919 23.4763 16.1336 23.6152 16.2168 23.7189C16.3001 23.8226 16.4394 23.9152 16.6331 23.9966C16.8269 24.0764 17.1183 24.1641 17.5058 24.2599C18.1799 24.4306 18.6474 24.6557 18.91 24.9286C19.1726 25.203 19.3039 25.5573 19.3039 25.9898C19.3039 26.5021 19.1118 26.8994 18.7275 27.1851C18.3416 27.4723 17.7764 27.6144 17.0302 27.6144C16.2841 27.6144 15.6852 27.5186 15.2305 27.3287Z" fill="white"/>
<path d="M20.2518 21.7783H21.227V27.525H20.2518V21.7783Z" fill="white"/>
<path d="M22.3558 21.7783H23.2157L26.2243 26.0073V21.7783H27.1914V27.525H26.3316L23.3326 23.304V27.525H22.3574L22.3558 21.7783Z" fill="white"/>
<path d="M28.8807 26.8611C28.3907 26.3584 28.1473 25.6611 28.1473 24.7674C28.1473 23.7987 28.3891 23.0423 28.8727 22.5013C29.3562 21.9603 30.0784 21.689 31.0391 21.689C31.6764 21.689 32.2464 21.7751 32.7476 21.9475V22.7853C32.2528 22.6082 31.71 22.5172 31.1192 22.5172C30.4082 22.5172 29.899 22.7039 29.5916 23.0758C29.2842 23.4476 29.1305 24.0109 29.1305 24.7674C29.1305 26.1175 29.7661 26.7941 31.0375 26.7941C31.5499 26.7941 31.9646 26.7335 32.2816 26.6154V25.0099H30.8405V24.3764H33.1142V27.142C32.8997 27.2792 32.6163 27.391 32.2688 27.4803C31.9197 27.5713 31.5002 27.6144 31.0103 27.6144C30.0784 27.6144 29.3706 27.3638 28.8807 26.8611Z" fill="white"/>
<path d="M35.2182 27.3639C34.7715 27.1613 34.4368 26.8373 34.2158 26.3921C33.9949 25.9468 33.8844 25.3707 33.8844 24.6701C33.8844 23.636 34.1086 22.8796 34.5553 22.404C35.0036 21.9285 35.6889 21.6907 36.6144 21.6907C36.8658 21.6907 37.1012 21.7082 37.3222 21.7433L37.4743 21.3428H38.1372L37.9226 21.9045C38.4062 22.096 38.7632 22.4168 38.997 22.8684C39.2308 23.32 39.3461 23.9201 39.3461 24.6701C39.3461 25.6755 39.1203 26.4176 38.6704 26.8964C38.2204 27.3767 37.5351 27.6145 36.616 27.6145C36.3358 27.6145 36.0668 27.5906 35.8106 27.5427L35.6409 27.9975H34.978L35.2198 27.3655L35.2182 27.3639ZM37.0179 22.5476C36.8914 22.5285 36.7585 22.5189 36.6144 22.5189C36.006 22.5189 35.5624 22.6833 35.2854 23.0104C35.0084 23.3376 34.8691 23.8914 34.8691 24.6701C34.8691 25.1409 34.922 25.5271 35.0309 25.8303C35.1381 26.1335 35.3047 26.3633 35.532 26.5181L37.0179 22.5492V22.5476ZM37.9482 26.2931C38.2284 25.9596 38.3693 25.4186 38.3693 24.6685C38.3693 24.1515 38.3053 23.735 38.1804 23.4206C38.0555 23.1046 37.8634 22.8748 37.6072 22.7328L36.1037 26.7479C36.2702 26.7783 36.4399 26.7926 36.6128 26.7926C37.2213 26.7926 37.668 26.6267 37.9482 26.2931Z" fill="white"/>
<path d="M40.3036 21.7786H42.9536C43.5812 21.7786 44.0456 21.9398 44.3498 22.2605C44.654 22.5813 44.8061 23.0345 44.8061 23.6186C44.8061 24.0287 44.7037 24.375 44.4971 24.6559C44.2921 24.94 44.0007 25.1379 43.6261 25.2496C43.7269 25.3214 43.8086 25.4012 43.8678 25.4858C43.9271 25.5703 43.9911 25.6948 44.0568 25.8544L44.7821 27.5237H43.7798L43.072 25.9182C43.0016 25.7555 42.9167 25.6453 42.8223 25.5831C42.7262 25.5209 42.5741 25.4889 42.3659 25.4889H41.2819V27.5221H40.3068V21.7754L40.3036 21.7786ZM42.6926 24.7054C43.4515 24.7054 43.8294 24.3415 43.8294 23.617C43.8294 22.8973 43.4803 22.5366 42.7822 22.5366H41.2787V24.7038H42.6926V24.7054Z" fill="white"/>
<path d="M48.8955 24.7422H55.7983V25.5002H48.8955V24.7422Z" fill="white"/>
<path d="M60.067 21.7783H64.0876V22.5379H61.0437V24.2774H63.7562V25.0275H61.0437V26.7765H64.0876V27.5266H60.067V21.7783Z" fill="white"/>
<path d="M64.9379 27.3287V26.4717C65.4935 26.6872 66.0619 26.7941 66.6464 26.7941C67.1299 26.7941 67.4806 26.7367 67.6984 26.6249C67.9161 26.5116 68.025 26.301 68.025 25.9914C68.025 25.7951 67.9786 25.6387 67.8857 25.5238C67.7928 25.4073 67.6423 25.3068 67.4342 25.2238C67.2244 25.1408 66.9122 25.0466 66.4942 24.9381C65.873 24.7769 65.4375 24.5727 65.1877 24.3269C64.9379 24.0796 64.8114 23.7396 64.8114 23.304C64.8114 22.7933 65.0003 22.3959 65.3766 22.1135C65.7529 21.831 66.3021 21.689 67.0226 21.689C67.3397 21.689 67.6455 21.7113 67.9401 21.756C68.2348 21.8007 68.4765 21.8549 68.6607 21.922V22.7773C68.2075 22.6066 67.7047 22.5188 67.1571 22.5188C66.704 22.5188 66.3645 22.5795 66.1372 22.6975C65.9098 22.8156 65.7961 23.0183 65.7961 23.304C65.7961 23.4763 65.8378 23.6152 65.921 23.7189C66.0059 23.8226 66.1436 23.9152 66.3373 23.9966C66.5311 24.0764 66.8241 24.1641 67.2116 24.2599C67.8857 24.4306 68.3532 24.6557 68.6158 24.9286C68.8784 25.203 69.0097 25.5573 69.0097 25.9898C69.0097 26.5021 68.8176 26.8994 68.4333 27.1851C68.049 27.4723 67.4822 27.6144 66.736 27.6144C65.9899 27.6144 65.391 27.5186 64.9379 27.3287Z" fill="white"/>
<path d="M69.9592 21.7785H72.5275C73.1664 21.7785 73.6484 21.954 73.9734 22.3051C74.2985 22.6562 74.4618 23.1206 74.4618 23.6967C74.4618 24.2664 74.2841 24.726 73.9286 25.0707C73.5731 25.4154 73.0944 25.5878 72.4939 25.5878H70.9344V27.5235H69.9592V21.7769V21.7785ZM72.313 24.8218C72.6877 24.8218 72.9791 24.7228 73.1808 24.5233C73.3842 24.3238 73.4851 24.0478 73.4851 23.6967C73.4851 23.328 73.389 23.0424 73.1984 22.8397C73.0079 22.6386 72.7261 22.5381 72.3578 22.5381H70.9328V24.8218H72.313Z" fill="white"/>
<path d="M75.24 21.7783H79.259V22.5379H76.2167V24.2774H78.9291V25.0275H76.2167V26.7765H79.259V27.5266H75.24V21.7783Z" fill="white"/>
<path d="M80.1636 21.7786H82.8135C83.4412 21.7786 83.9056 21.9398 84.2098 22.2605C84.514 22.5813 84.6661 23.0345 84.6661 23.6186C84.6661 24.0287 84.5637 24.375 84.3571 24.6559C84.1521 24.94 83.8607 25.1379 83.4844 25.2496C83.5853 25.3214 83.667 25.4012 83.7262 25.4858C83.7855 25.5703 83.8479 25.6948 83.9136 25.8544L84.6389 27.5237H83.6366L82.9288 25.9182C82.8584 25.7555 82.7735 25.6453 82.679 25.5831C82.5846 25.5209 82.4325 25.4889 82.2227 25.4889H81.1387V27.5221H80.1636V21.7754V21.7786ZM82.5542 24.7054C83.3131 24.7054 83.691 24.3415 83.691 23.617C83.691 22.8973 83.3419 22.5366 82.6438 22.5366H81.1403V24.7038H82.5558L82.5542 24.7054Z" fill="white"/>
<path d="M86.1777 26.8611C85.6877 26.3584 85.4443 25.6611 85.4443 24.7674C85.4443 23.7987 85.6845 23.0423 86.1697 22.5013C86.6532 21.9603 87.3754 21.689 88.3361 21.689C88.9734 21.689 89.545 21.7751 90.0445 21.9475V22.7853C89.5498 22.6082 89.007 22.5172 88.4161 22.5172C87.7052 22.5172 87.196 22.7039 86.8886 23.0758C86.5828 23.4476 86.4291 24.0109 86.4291 24.7674C86.4291 26.1175 87.0631 26.7941 88.3345 26.7941C88.8469 26.7941 89.2616 26.7335 89.5786 26.6154V25.0099H88.1375V24.3764H90.4112V27.142C90.1967 27.2792 89.9133 27.391 89.5658 27.4803C89.2167 27.5713 88.7988 27.6144 88.3089 27.6144C87.377 27.6144 86.6676 27.3638 86.1777 26.8611Z" fill="white"/>
<path d="M93.3927 21.7783H97.9769V22.5379H95.4086V24.2774H97.6454V25.0275H95.4086V26.7765H97.9769V27.5266H94.4399V26.0361H92.8098L92.2382 27.5266H91.191L93.3927 21.7783ZM94.4415 25.286V22.5204H94.0924L93.0628 25.286H94.4415Z" fill="white"/>
<path d="M98.9248 21.7786H101.575C102.202 21.7786 102.667 21.9398 102.971 22.2605C103.275 22.5813 103.427 23.0345 103.427 23.6186C103.427 24.0287 103.325 24.375 103.118 24.6559C102.913 24.94 102.622 25.1379 102.246 25.2496C102.347 25.3214 102.428 25.4012 102.487 25.4858C102.547 25.5703 102.609 25.6948 102.675 25.8544L103.4 27.5237H102.398L101.69 25.9182C101.62 25.7555 101.535 25.6453 101.44 25.5831C101.346 25.5209 101.194 25.4889 100.984 25.4889H99.8999V27.5221H98.9248V21.7754V21.7786ZM101.317 24.7054C102.076 24.7054 102.454 24.3415 102.454 23.617C102.454 22.8973 102.105 22.5366 101.407 22.5366H99.9031V24.7038H101.319L101.317 24.7054Z" fill="white"/>
<path d="M104.386 21.7783H106.724C107.589 21.7783 108.225 22.0081 108.63 22.4661C109.035 22.9241 109.238 23.6646 109.238 24.6892C109.238 25.669 109.035 26.3872 108.63 26.8436C108.223 27.2984 107.589 27.5266 106.724 27.5266H104.386V21.7783ZM106.57 26.7749C106.971 26.7749 107.291 26.7175 107.534 26.601C107.775 26.4861 107.959 26.277 108.08 25.9722C108.202 25.6674 108.263 25.2397 108.263 24.6876C108.263 24.1274 108.207 23.6933 108.093 23.3853C107.981 23.0758 107.802 22.8571 107.562 22.7294C107.32 22.6018 106.99 22.5379 106.572 22.5379H105.363V26.7749H106.572H106.57Z" fill="white"/>
<path d="M110.196 21.7783H114.215V22.5379H111.172V24.2774H113.885V25.0275H111.172V26.7765H114.215V27.5266H110.196V21.7783Z" fill="white"/>
<path d="M118.253 24.7422H125.155V25.5002H118.253V24.7422Z" fill="white"/>
<path d="M130.918 22.5379H129.075V21.7783H133.73V22.5379H131.895V27.525H130.92L130.918 22.5379Z" fill="white"/>
<path d="M134.508 21.7783H135.483V27.525H134.508V21.7783Z" fill="white"/>
<path d="M136.612 21.7786H137.587V24.4197L140.04 21.7786H141.167L139.047 24.099L141.259 27.5237H140.221L138.439 24.7134L137.589 25.623V27.5221H136.614V21.7754L136.612 21.7786Z" fill="white"/>
<path d="M142.78 27.3639C142.333 27.1613 141.998 26.8373 141.777 26.3921C141.555 25.9468 141.446 25.3707 141.446 24.6701C141.446 23.636 141.67 22.8796 142.117 22.404C142.565 21.9285 143.251 21.6907 144.176 21.6907C144.426 21.6907 144.663 21.7082 144.882 21.7433L145.036 21.3428H145.697L145.483 21.9045C145.966 22.096 146.323 22.4168 146.557 22.8684C146.791 23.32 146.906 23.9201 146.906 24.6701C146.906 25.6755 146.68 26.4176 146.23 26.8964C145.78 27.3767 145.095 27.6145 144.176 27.6145C143.896 27.6145 143.627 27.5906 143.371 27.5427L143.201 27.9975H142.538L142.78 27.3639ZM144.58 22.5476C144.453 22.5285 144.32 22.5189 144.176 22.5189C143.568 22.5189 143.124 22.6833 142.847 23.0104C142.568 23.3376 142.431 23.8914 142.431 24.6701C142.431 25.1409 142.484 25.5271 142.593 25.8303C142.698 26.1335 142.866 26.3633 143.092 26.5181L144.58 22.5492V22.5476ZM145.51 26.2931C145.79 25.9596 145.931 25.4186 145.931 24.6685C145.931 24.1515 145.869 23.735 145.744 23.4206C145.619 23.1046 145.427 22.8748 145.17 22.7328L143.668 26.7479C143.835 26.7783 144.005 26.7926 144.178 26.7926C144.786 26.7926 145.231 26.6267 145.511 26.2931H145.51Z" fill="white"/>
<path d="M147.864 21.7785H150.658C151.218 21.7785 151.638 21.9109 151.919 22.1758C152.2 22.4407 152.34 22.819 152.34 23.3137C152.34 23.6169 152.28 23.8754 152.156 24.0845C152.035 24.2967 151.865 24.4579 151.652 24.5712C151.945 24.6558 152.169 24.7994 152.328 25.0037C152.486 25.2079 152.565 25.4968 152.565 25.8638C152.565 26.4176 152.414 26.8309 152.113 27.1086C151.812 27.3847 151.369 27.5235 150.784 27.5235H147.865V21.7769L147.864 21.7785ZM150.523 24.2329C151.132 24.2329 151.436 23.952 151.436 23.3935C151.436 23.0855 151.361 22.8604 151.21 22.72C151.061 22.5812 150.795 22.511 150.414 22.511H148.839V24.2329H150.523ZM150.576 26.8118C150.928 26.8118 151.183 26.7368 151.343 26.5884C151.501 26.4399 151.578 26.1862 151.578 25.8287C151.578 25.5271 151.497 25.3037 151.333 25.1601C151.17 25.0164 150.885 24.9462 150.478 24.9462H148.84V26.8102H150.578L150.576 26.8118Z" fill="white"/>
</svg>
