<svg width="79" height="41" viewBox="0 0 79 41" fill="none" xmlns="http://www.w3.org/2000/svg">
<mask id="mask0_645_254" style="mask-type:alpha" maskUnits="userSpaceOnUse" x="0" y="0" width="79" height="41">
<path d="M47.6148 15.587L49.7443 8.01304L48.6972 15.1992L47.6148 15.587ZM74.2362 5.96875L56.1123 12.5181L53.4879 9.55464L74.2362 5.96875ZM50.2599 6.30228L55.8433 12.6187L48.987 15.1002L50.2599 6.30069V6.30228ZM47.4915 7.90133L42.6367 11.6436L29.1722 0.413574L47.4915 7.90133Z" fill="white"/>
<path d="M56.3204 18.2185C57.0393 18.6606 57.6574 19.0436 58.9719 19.0436C60.2865 19.0436 60.9094 18.6606 61.6267 18.2185C62.3745 17.7573 63.2231 17.2339 64.8419 17.2339C65.0084 17.2339 65.1621 17.2435 65.3127 17.253L75.2641 5.88574L47.7844 15.8072L51.7009 17.3951C52.0996 17.2961 52.5576 17.2323 53.1084 17.2323C54.7256 17.2323 55.5726 17.7573 56.3204 18.2185Z" fill="white"/>
<path d="M74.2362 5.96875L53.4879 9.55464L56.1123 12.5197L74.2362 5.96875Z" fill="white"/>
<path d="M47.24 19.0434C48.5546 19.0434 49.1743 18.6604 49.8932 18.2183C50.2935 17.971 50.729 17.7077 51.291 17.5162L47.405 15.9395L45.9815 16.2235L44.4972 18.1641C44.526 18.1816 44.558 18.2008 44.5869 18.2183C45.3058 18.6604 45.9255 19.0434 47.24 19.0434Z" fill="white"/>
<path d="M55.8432 12.6186L50.2599 6.30225L48.9869 15.1002L55.8432 12.6186Z" fill="white"/>
<path d="M42.8431 11.8161L45.8166 14.2993L47.445 13.9067L47.8565 13.7264L49.9332 6.35352L42.8431 11.8161Z" fill="white"/>
<path d="M47.8341 13.8042L46.8174 15.1335L47.3378 15.5676L47.8341 13.8042Z" fill="white"/>
<path d="M47.6147 15.5871L48.6972 15.1993L49.7443 8.01318L47.6147 15.5871Z" fill="white"/>
<path d="M36.8019 16.471L45.498 14.3756L28.8328 0.474121L36.8019 16.471Z" fill="white"/>
<path d="M46.6573 15.3428L46.2281 15.9045L47.1168 15.7258L46.6573 15.3428Z" fill="white"/>
<path d="M47.4915 7.90133L29.1722 0.413574L42.6367 11.6452L47.4915 7.90133Z" fill="white"/>
<path d="M20.1254 25.8516L21.7506 18.1548L21.1806 25.3936L20.1254 25.8516ZM46.0535 14.5099L28.402 22.2338L25.5871 19.4474L46.0535 14.5099ZM22.1525 16.4137L28.141 22.3519L21.4624 25.2787L22.1525 16.4137ZM21.8291 16.4855L19.8468 25.85L15.1153 22.4014L21.8291 16.4839V16.4855ZM19.4945 18.1915L14.8975 22.245L0.720581 11.9214L19.4945 18.1915Z" fill="white"/>
<path d="M47.0751 14.36L20.3096 26.0624L22.5705 26.8109C22.9083 26.747 23.2846 26.7055 23.7201 26.7055C25.3405 26.7055 26.1891 27.229 26.9369 27.6902C27.6558 28.1338 28.2771 28.5152 29.5933 28.5152C30.9095 28.5152 31.5307 28.1322 32.2497 27.6902C32.5843 27.4843 32.943 27.2689 33.3753 27.0901L30.8022 23.0574L31.3034 23.3973L38.5471 25.5007L47.0735 14.3584L47.0751 14.36Z" fill="white"/>
<path d="M46.0536 14.5098L25.5872 19.4489L28.4021 22.2337L46.0536 14.5098Z" fill="white"/>
<path d="M14.9777 27.5545C15.0529 27.5992 15.1266 27.6454 15.2002 27.6901C15.9176 28.1322 16.5372 28.5152 17.8518 28.5152C19.1664 28.5152 19.7876 28.1322 20.5066 27.6901C20.9501 27.4172 21.4337 27.1236 22.0886 26.9289L19.943 26.2188L14.9809 27.5561L14.9777 27.5545Z" fill="white"/>
<path d="M28.1411 22.3518L22.1526 16.4136L21.4625 25.277L28.1411 22.3518Z" fill="white"/>
<path d="M19.8469 25.8514L21.8292 16.4854L15.1154 22.4028L19.8469 25.8514Z" fill="white"/>
<path d="M20.1255 25.8516L21.1791 25.3936L21.7507 18.1548L20.1255 25.8516Z" fill="white"/>
<path d="M0.385986 12.0044L9.33985 27.3533C9.97392 27.007 10.7569 26.7054 11.985 26.7054C13.2275 26.7054 14.0137 27.0134 14.651 27.3661L19.6371 26.024L0.385986 12.0044Z" fill="white"/>
<path d="M19.4946 18.1915L0.720581 11.9214L14.8975 22.245L19.4946 18.1915Z" fill="white"/>
<path d="M51.9924 37.0368L53.3053 29.2809L53.0283 36.5373L51.9924 37.0368ZM77.4417 24.6641L60.1168 33.0902L57.1914 30.4203L77.4417 24.6641ZM53.6368 27.5255L59.8606 33.2179L53.3069 36.4096L53.6368 27.5255ZM53.3165 27.61L51.7154 37.0479L46.8477 33.7924L53.3165 27.6116V27.61ZM51.0525 29.4086L46.622 33.6424L32.0399 23.8965L51.0525 29.4086Z" fill="white"/>
<path d="M52.1846 37.2395L59.6894 39.3923C60.4147 38.9471 61.2569 38.4683 62.8053 38.4683C64.4257 38.4683 65.2743 38.9918 66.0221 39.453C66.4704 39.729 66.8803 39.9812 67.4423 40.1328L78.4553 24.4727L52.1846 37.2395Z" fill="white"/>
<path d="M77.4417 24.6641L57.1914 30.4187L60.1168 33.0902L77.4417 24.6641Z" fill="white"/>
<path d="M43.5653 39.9938C43.9944 40.1646 44.4972 40.2779 45.2033 40.2779C46.5179 40.2779 47.1376 39.8949 47.8565 39.4528C48.6043 38.9916 49.4529 38.4682 51.0717 38.4682C52.6905 38.4682 53.5359 38.9916 54.2837 39.4528C55.0026 39.8949 55.6207 40.2779 56.9353 40.2779C58.1233 40.2779 58.7446 39.9667 59.3819 39.5805L51.8227 37.4102L43.5653 39.9938Z" fill="white"/>
<path d="M59.8606 33.2178L53.6367 27.5254L53.3053 36.4095L59.8606 33.2178Z" fill="white"/>
<path d="M51.7154 37.0482L53.3166 27.6104L46.8478 33.7927L51.7154 37.0482Z" fill="white"/>
<path d="M51.9924 37.0371L53.0284 36.5376L53.3054 29.2812L51.9924 37.0371Z" fill="white"/>
<path d="M31.7101 23.9941L41.1331 38.7446C41.7047 38.9377 42.145 39.2042 42.5517 39.4548C42.7695 39.5888 42.9793 39.7165 43.2018 39.8298L51.5136 37.2302L31.7101 23.9941Z" fill="white"/>
<path d="M46.6236 33.6438L51.0524 29.4084L32.0415 23.8979L46.6236 33.6438Z" fill="white"/>
</mask>
<g mask="url(#mask0_645_254)">
<path d="M47.7565 7.27433L28.9614 -0.132812L28.0872 0.738616L36.392 16.86L37.2662 16.4243L46.4452 14.2458H47.3194L44.2597 18.1672L45.571 19.91H56.9355L65.2404 18.1672L76.1678 5.96719V5.09576L53.8759 9.01719L50.3791 5.53147L47.7565 7.27433Z" fill="#D9D9D9"/>
<path d="M8.4178 29.4958L-0.76123 12.0672L4.04683 9.88867L22.4049 15.9887L25.4646 19.0387L37.2662 16.4244L46.4452 14.2458H47.3194L44.2597 18.1672L39.0146 26.0101L33.7694 27.753V29.4958H8.4178Z" fill="#AEAEAE"/>
<path d="M67.4259 40.3889L78.7904 24.2674H78.3533L56.9356 30.3674L53.4388 27.3174L51.2533 29.0603H50.8162L31.1469 23.396L41.6372 40.3889H67.4259Z" fill="#7E7E7E"/>
</g>
</svg>
