<svg width="1440" height="30" viewBox="0 0 1440 30" fill="none" xmlns="http://www.w3.org/2000/svg">
<path d="M-0.662476 4.32566C7.88453 1.81604 31.3375 -1.69743 56.7734 4.32566C82.2093 10.3487 102.927 6.83528 110.107 4.32566C118.654 1.81604 142.107 -1.69743 167.543 4.32566C192.979 10.3487 213.697 6.83528 220.876 4.32566C229.423 1.81604 252.876 -1.69743 278.312 4.32566C303.748 10.3487 324.466 6.83528 331.645 4.32566C340.192 1.81604 363.645 -1.69743 389.081 4.32566C414.517 10.3487 435.235 6.83528 442.414 4.32566C450.961 1.81604 474.414 -1.69743 499.85 4.32566C525.286 10.3487 546.004 6.83528 553.184 4.32566C561.731 1.81604 585.184 -1.69743 610.62 4.32566C636.056 10.3487 656.773 6.83528 663.953 4.32566C672.5 1.81604 695.953 -1.69743 721.389 4.32566C746.825 10.3487 767.543 6.83528 774.722 4.32566C783.269 1.81604 806.722 -1.69743 832.158 4.32566C857.594 10.3487 878.312 6.83528 885.491 4.32566C894.038 1.81604 917.491 -1.69743 942.927 4.32566C968.363 10.3487 989.081 6.83528 996.261 4.32566C1004.81 1.81604 1028.26 -1.69743 1053.7 4.32566C1079.13 10.3487 1099.85 6.83528 1107.03 4.32566C1115.58 1.81604 1139.03 -1.69743 1164.47 4.32566C1189.9 10.3487 1210.62 6.83528 1217.8 4.32566C1226.35 1.81604 1249.8 -1.69743 1275.23 4.32566C1300.67 10.3487 1321.39 6.83528 1328.57 4.32566C1337.12 1.81604 1360.57 -1.69743 1386 4.32566C1411.44 10.3487 1432.16 6.83528 1439.34 4.32566M-0.662476 14.605C7.88453 12.0953 31.3375 8.58188 56.7734 14.605C82.2093 20.628 102.927 17.1146 110.107 14.605C118.654 12.0953 142.107 8.58188 167.543 14.605C192.979 20.628 213.697 17.1146 220.876 14.605C229.423 12.0953 252.876 8.58188 278.312 14.605C303.748 20.628 324.466 17.1146 331.645 14.605C340.192 12.0953 363.645 8.58188 389.081 14.605C414.517 20.628 435.235 17.1146 442.414 14.605C450.961 12.0953 474.414 8.58188 499.85 14.605C525.286 20.628 546.004 17.1146 553.184 14.605C561.731 12.0953 585.184 8.58188 610.62 14.605C636.056 20.628 656.773 17.1146 663.953 14.605C672.5 12.0953 695.953 8.58188 721.389 14.605C746.825 20.628 767.543 17.1146 774.722 14.605C783.269 12.0953 806.722 8.58188 832.158 14.605C857.594 20.628 878.312 17.1146 885.491 14.605C894.038 12.0953 917.491 8.58188 942.927 14.605C968.363 20.628 989.081 17.1146 996.261 14.605C1004.81 12.0953 1028.26 8.58188 1053.7 14.605C1079.13 20.628 1099.85 17.1146 1107.03 14.605C1115.58 12.0953 1139.03 8.58188 1164.47 14.605C1189.9 20.628 1210.62 17.1146 1217.8 14.605C1226.35 12.0953 1249.8 8.58188 1275.23 14.605C1300.67 20.628 1321.39 17.1146 1328.57 14.605C1337.12 12.0953 1360.57 8.58188 1386 14.605C1411.44 20.628 1432.16 17.1146 1439.34 14.605M-0.662476 25.372C7.88453 22.6342 31.3375 18.8014 56.7734 25.372C82.2093 31.9426 102.927 28.1098 110.107 25.372C118.654 22.6342 142.107 18.8014 167.543 25.372C192.979 31.9426 213.697 28.1098 220.876 25.372C229.423 22.6342 252.876 18.8014 278.312 25.372C303.748 31.9426 324.466 28.1098 331.645 25.372C340.192 22.6342 363.645 18.8014 389.081 25.372C414.517 31.9426 435.235 28.1098 442.414 25.372C450.961 22.6342 474.414 18.8014 499.85 25.372C525.286 31.9426 546.004 28.1098 553.184 25.372C561.731 22.6342 585.184 18.8014 610.62 25.372C636.056 31.9426 656.773 28.1098 663.953 25.372C672.5 22.6342 695.953 18.8014 721.389 25.372C746.825 31.9426 767.543 28.1098 774.722 25.372C783.269 22.6342 806.722 18.8014 832.158 25.372C857.594 31.9426 878.312 28.1098 885.491 25.372C894.038 22.6342 917.491 18.8014 942.927 25.372C968.363 31.9426 989.081 28.1098 996.261 25.372C1004.81 22.6342 1028.26 18.8014 1053.7 25.372C1079.13 31.9426 1099.85 28.1098 1107.03 25.372C1115.58 22.6342 1139.03 18.8014 1164.47 25.372C1189.9 31.9426 1210.62 28.1098 1217.8 25.372C1226.35 22.6342 1249.8 18.8014 1275.23 25.372C1300.67 31.9426 1321.39 28.1098 1328.57 25.372C1337.12 22.6342 1360.57 18.8014 1386 25.372C1411.44 31.9426 1432.16 28.1098 1439.34 25.372" stroke="#00D29E" stroke-width="2" stroke-linecap="round"/>
</svg>
